<?xml version="1.0" encoding="UTF-8" standalone="no"?>
<svg
   xmlns:dc="http://purl.org/dc/elements/1.1/"
   xmlns:cc="http://creativecommons.org/ns#"
   xmlns:rdf="http://www.w3.org/1999/02/22-rdf-syntax-ns#"
   xmlns:svg="http://www.w3.org/2000/svg"
   xmlns="http://www.w3.org/2000/svg"
   xmlns:sodipodi="http://sodipodi.sourceforge.net/DTD/sodipodi-0.dtd"
   xmlns:inkscape="http://www.inkscape.org/namespaces/inkscape"
   sodipodi:docname="logo.svg"
   inkscape:version="1.0 (4035a4fb49, 2020-05-01)"
   id="svg2399"
   version="1.1"
   viewBox="0 0 291.04166 277.60577"
   height="277.60577mm"
   width="291.04166mm">
  <defs
     id="defs2393" />
  <sodipodi:namedview
     inkscape:window-maximized="1"
     inkscape:window-y="27"
     inkscape:window-x="0"
     inkscape:window-height="1016"
     inkscape:window-width="1920"
     showgrid="false"
     inkscape:document-rotation="0"
     inkscape:current-layer="g999-3-0"
     inkscape:document-units="mm"
     inkscape:cy="587.30073"
     inkscape:cx="674.74562"
     inkscape:zoom="0.7"
     inkscape:pageshadow="2"
     inkscape:pageopacity="0.0"
     borderopacity="1.0"
     bordercolor="#666666"
     pagecolor="#ffffff"
     id="base"
     fit-margin-top="0"
     fit-margin-left="0"
     fit-margin-right="0"
     fit-margin-bottom="0" />
  <metadata
     id="metadata2396">
    <rdf:RDF>
      <cc:Work
         rdf:about="">
        <dc:format>image/svg+xml</dc:format>
        <dc:type
           rdf:resource="http://purl.org/dc/dcmitype/StillImage" />
        <dc:title />
      </cc:Work>
    </rdf:RDF>
  </metadata>
  <g
     id="layer1"
     inkscape:groupmode="layer"
     inkscape:label="Layer 1"
     transform="translate(40.520828,-9.6971156)">
    <g
       transform="translate(-9.9174213,8.9146211)"
       id="g3023">
      <rect
         style="opacity:1;vector-effect:none;fill:#0000ff;fill-opacity:0;stroke:none;stroke-width:3.17461;stroke-linecap:round;stroke-linejoin:miter;stroke-miterlimit:4;stroke-dasharray:none;stroke-dashoffset:0;stroke-opacity:1;paint-order:markers stroke fill"
         id="rect2349-4"
         width="291.04166"
         height="277.60318"
         x="-30.603407"
         y="0.78249454" />
      <g
         id="g999-3-0"
         transform="matrix(8.7327473,0,0,8.7327473,-1039.3853,-604.28783)">
        <g
           style="opacity:1"
           id="g4647">
          <path
             id="path4649"
             d="m 123.40668,69.531853 h 17.19401 v 31.300377 h -17.19401 z"
             style="color:#000000;font-style:normal;font-variant:normal;font-weight:normal;font-stretch:normal;font-size:medium;line-height:normal;font-family:sans-serif;font-variant-ligatures:normal;font-variant-position:normal;font-variant-caps:normal;font-variant-numeric:normal;font-variant-alternates:normal;font-variant-east-asian:normal;font-feature-settings:normal;font-variation-settings:normal;text-indent:0;text-align:start;text-decoration:none;text-decoration-line:none;text-decoration-style:solid;text-decoration-color:#000000;letter-spacing:normal;word-spacing:normal;text-transform:none;writing-mode:lr-tb;direction:ltr;text-orientation:mixed;dominant-baseline:auto;baseline-shift:baseline;text-anchor:start;white-space:normal;shape-padding:0;shape-margin:0;inline-size:0;clip-rule:nonzero;display:inline;overflow:visible;visibility:visible;isolation:auto;mix-blend-mode:normal;color-interpolation:sRGB;color-interpolation-filters:linearRGB;solid-color:#000000;solid-opacity:1;vector-effect:none;fill:#ffffff;fill-opacity:1;fill-rule:nonzero;stroke:none;stroke-width:0.488673;stroke-linecap:round;stroke-linejoin:miter;stroke-miterlimit:4;stroke-dasharray:none;stroke-dashoffset:0;stroke-opacity:1.0;paint-order:normal;color-rendering:auto;image-rendering:auto;shape-rendering:auto;text-rendering:auto;enable-background:accumulate;stop-color:#000000;stop-opacity:1;" />
          <path
             id="path4651"
             d="M 123.16211 69.287109 L 123.16211 69.53125 L 123.16211 101.07617 L 140.8457 101.07617 L 140.8457 69.287109 L 123.16211 69.287109 z M 123.65039 69.775391 L 140.35547 69.775391 L 140.35547 100.58789 L 123.65039 100.58789 L 123.65039 69.775391 z "
             style="color:#000000;font-style:normal;font-variant:normal;font-weight:normal;font-stretch:normal;font-size:medium;line-height:normal;font-family:sans-serif;font-variant-ligatures:normal;font-variant-position:normal;font-variant-caps:normal;font-variant-numeric:normal;font-variant-alternates:normal;font-variant-east-asian:normal;font-feature-settings:normal;font-variation-settings:normal;text-indent:0;text-align:start;text-decoration:none;text-decoration-line:none;text-decoration-style:solid;text-decoration-color:#000000;letter-spacing:normal;word-spacing:normal;text-transform:none;writing-mode:lr-tb;direction:ltr;text-orientation:mixed;dominant-baseline:auto;baseline-shift:baseline;text-anchor:start;white-space:normal;shape-padding:0;shape-margin:0;inline-size:0;clip-rule:nonzero;display:inline;overflow:visible;visibility:visible;isolation:auto;mix-blend-mode:normal;color-interpolation:sRGB;color-interpolation-filters:linearRGB;solid-color:#000000;solid-opacity:1;vector-effect:none;fill:#000000;fill-opacity:1;fill-rule:nonzero;stroke:none;stroke-width:0.488673;stroke-linecap:round;stroke-linejoin:miter;stroke-miterlimit:4;stroke-dasharray:none;stroke-dashoffset:0;stroke-opacity:1.0;paint-order:normal;color-rendering:auto;image-rendering:auto;shape-rendering:auto;text-rendering:auto;enable-background:accumulate;stop-color:#000000;stop-opacity:1;" />
        </g>
        <g
           style="opacity:1"
           id="g4641">
          <path
             id="path4643"
             d="m 124.15606,70.326912 h 15.69526 v 29.710258 h -15.69526 z"
             style="color:#000000;font-style:normal;font-variant:normal;font-weight:normal;font-stretch:normal;font-size:medium;line-height:normal;font-family:sans-serif;font-variant-ligatures:normal;font-variant-position:normal;font-variant-caps:normal;font-variant-numeric:normal;font-variant-alternates:normal;font-variant-east-asian:normal;font-feature-settings:normal;font-variation-settings:normal;text-indent:0;text-align:start;text-decoration:none;text-decoration-line:none;text-decoration-style:solid;text-decoration-color:#000000;letter-spacing:normal;word-spacing:normal;text-transform:none;writing-mode:lr-tb;direction:ltr;text-orientation:mixed;dominant-baseline:auto;baseline-shift:baseline;text-anchor:start;white-space:normal;shape-padding:0;shape-margin:0;inline-size:0;clip-rule:nonzero;display:inline;overflow:visible;visibility:visible;isolation:auto;mix-blend-mode:normal;color-interpolation:sRGB;color-interpolation-filters:linearRGB;solid-color:#000000;solid-opacity:1;vector-effect:none;fill:#ffffff;fill-opacity:1;fill-rule:nonzero;stroke:none;stroke-width:0.5;stroke-linecap:round;stroke-linejoin:miter;stroke-miterlimit:4;stroke-dasharray:none;stroke-dashoffset:0;stroke-opacity:1.0;paint-order:normal;color-rendering:auto;image-rendering:auto;shape-rendering:auto;text-rendering:auto;enable-background:accumulate;stop-color:#000000;stop-opacity:1;" />
          <path
             id="path4645"
             d="M 123.90625 70.076172 L 123.90625 70.326172 L 123.90625 100.28711 L 140.10156 100.28711 L 140.10156 70.076172 L 123.90625 70.076172 z M 124.40625 70.576172 L 139.60156 70.576172 L 139.60156 99.787109 L 124.40625 99.787109 L 124.40625 70.576172 z "
             style="color:#000000;font-style:normal;font-variant:normal;font-weight:normal;font-stretch:normal;font-size:medium;line-height:normal;font-family:sans-serif;font-variant-ligatures:normal;font-variant-position:normal;font-variant-caps:normal;font-variant-numeric:normal;font-variant-alternates:normal;font-variant-east-asian:normal;font-feature-settings:normal;font-variation-settings:normal;text-indent:0;text-align:start;text-decoration:none;text-decoration-line:none;text-decoration-style:solid;text-decoration-color:#000000;letter-spacing:normal;word-spacing:normal;text-transform:none;writing-mode:lr-tb;direction:ltr;text-orientation:mixed;dominant-baseline:auto;baseline-shift:baseline;text-anchor:start;white-space:normal;shape-padding:0;shape-margin:0;inline-size:0;clip-rule:nonzero;display:inline;overflow:visible;visibility:visible;isolation:auto;mix-blend-mode:normal;color-interpolation:sRGB;color-interpolation-filters:linearRGB;solid-color:#000000;solid-opacity:1;vector-effect:none;fill:#000000;fill-opacity:1;fill-rule:nonzero;stroke:none;stroke-width:0.5;stroke-linecap:round;stroke-linejoin:miter;stroke-miterlimit:4;stroke-dasharray:none;stroke-dashoffset:0;stroke-opacity:1.0;paint-order:normal;color-rendering:auto;image-rendering:auto;shape-rendering:auto;text-rendering:auto;enable-background:accumulate;stop-color:#000000;stop-opacity:1;" />
        </g>
        <g
           transform="translate(-0.20156093,-0.21350445)"
           id="g926-5-8">
          <g
             style="font-style:normal;font-weight:normal;font-size:16.6052px;line-height:1.25;font-family:sans-serif;text-align:center;letter-spacing:0px;word-spacing:0px;text-anchor:middle;fill:#000000;fill-opacity:1;stroke:none;stroke-width:0.415129"
             id="text835-4-1-0"
             transform="scale(0.97002111,1.0309054)"
             aria-label="RA">
            <path
               id="path4511"
               style="font-style:normal;font-variant:normal;font-weight:normal;font-stretch:normal;font-family:'Reckoner Bold';-inkscape-font-specification:'Reckoner Bold, ';stroke-width:0.415129"
               d="m 135.70163,81.6035 h -1.67713 l -2.09226,-7.638392 h 1.62731 v -2.14207 h -1.62731 v 1.66052 0.48155 2.440965 3.370855 1.826572 h -1.82657 V 80.391321 70.594253 69.97986 h 1.17897 0.6476 1.79337 0.3321 q 0.51476,0 0.88008,0.332104 0.36531,0.332104 0.43173,0.83026 l 0.0166,0.166052 v 3.154988 q 0,0.514762 -0.34871,0.896681 -0.33211,0.365315 -0.81366,0.431735 z" />
            <path
               id="path4513"
               style="font-style:normal;font-variant:normal;font-weight:normal;font-stretch:normal;font-family:'Reckoner Bold';-inkscape-font-specification:'Reckoner Bold, ';stroke-width:0.415129"
               d="m 138.32524,81.6035 h -1.84318 l 1.85978,-11.640245 h 2.25831 l 1.87639,11.640245 h -1.85979 l -0.38192,-2.440964 h -1.51107 z m 1.14576,-8.036916 -0.46495,3.76938 h 0.92989 z" />
          </g>
          <g
             style="font-style:normal;font-weight:normal;font-size:17.7085px;line-height:1.25;font-family:sans-serif;text-align:center;letter-spacing:0px;word-spacing:0px;text-anchor:middle;fill:#000000;fill-opacity:1;stroke:none;stroke-width:0.442711"
             id="text835-7-9-8-7"
             transform="scale(1.0329946,0.96805928)"
             aria-label="SE">
            <path
               id="path4516"
               style="font-style:normal;font-variant:normal;font-weight:normal;font-stretch:normal;font-family:'Reckoner Bold';-inkscape-font-specification:'Reckoner Bold, ';stroke-width:0.442711"
               d="m 127.15023,90.109451 q 0.425,0.513547 0.425,1.151053 v 1.328137 0.35417 h -0.35417 -1.23959 -0.35417 v -0.35417 -1.133344 h -1.48752 v 2.213563 0.08854 h 1.6646 q 0.74376,0 1.25731,0.513547 0.51354,0.513546 0.51354,1.257303 v 1.77085 2.868778 q 0,0.63751 -0.425,1.15105 -0.425,0.47813 -1.06251,0.58438 l -0.0354,0.0177 h -0.0177 -2.31981 -0.0177 l -0.0354,-0.0177 q -0.63751,-0.10625 -1.06251,-0.58438 -0.42501,-0.51354 -0.42501,-1.15105 v -1.328138 -0.35417 h 0.35417 1.2573 0.35417 v 0.35417 1.133344 h 1.48752 v -4.25004 h -1.68231 q -0.74376,0 -1.2573,-0.513547 -0.51355,-0.513546 -0.51355,-1.257303 v -0.12396 -0.159376 -2.408356 q 0,-0.637506 0.42501,-1.151053 0.425,-0.478129 1.06251,-0.58438 h 0.0354 0.0177 2.31981 0.0177 0.0354 q 0.63751,0.106251 1.06251,0.58438 z" />
            <path
               id="path4518"
               style="font-style:normal;font-variant:normal;font-weight:normal;font-stretch:normal;font-family:'Reckoner Bold';-inkscape-font-specification:'Reckoner Bold, ';stroke-width:0.442711"
               d="m 130.6742,89.525071 h 3.1167 v 1.239595 0.70834 h -3.1167 v 2.319813 h 2.47919 v 0.35417 1.239595 0.35417 h -2.47919 v 4.232332 h 3.1167 v 0.708344 1.23959 h -3.1167 -1.94793 V 100.6283 90.180285 89.525071 h 1.94793 z" />
          </g>
          <path
             d="m 126.20525,84.645538 h 12 v 1.5 h -12 z"
             style="opacity:1;vector-effect:none;fill:#000000;fill-opacity:1;stroke:none;stroke-width:2.34349;stroke-linecap:round;stroke-linejoin:round;stroke-miterlimit:4;stroke-dasharray:none;stroke-dashoffset:0;stroke-opacity:1;paint-order:normal"
             id="rect917-6-0" />
          <g
             style="font-style:normal;font-weight:normal;font-size:3.52647px;line-height:1.25;font-family:sans-serif;text-align:center;letter-spacing:0px;word-spacing:0px;text-anchor:middle;fill:#000000;fill-opacity:1;stroke:none;stroke-width:0.0881613"
             id="text835-3-2-3-3"
             transform="scale(1.0818148,0.92437263)"
             aria-label="3" />
        </g>
      </g>
      <g
         id="g1306-6-5-2"
         style="opacity:1;fill:#ffffff"
         transform="matrix(4.8260954,-2.3364856,2.3364856,4.8260954,-899.16466,189.817)">
        <path
           style="color:#000000;font-style:normal;font-variant:normal;font-weight:normal;font-stretch:normal;font-size:medium;line-height:normal;font-family:sans-serif;font-variant-ligatures:normal;font-variant-position:normal;font-variant-caps:normal;font-variant-numeric:normal;font-variant-alternates:normal;font-variant-east-asian:normal;font-feature-settings:normal;font-variation-settings:normal;text-indent:0;text-align:start;text-decoration:none;text-decoration-line:none;text-decoration-style:solid;text-decoration-color:#000000;letter-spacing:normal;word-spacing:normal;text-transform:none;writing-mode:lr-tb;direction:ltr;text-orientation:mixed;dominant-baseline:auto;baseline-shift:baseline;text-anchor:start;white-space:normal;shape-padding:0;shape-margin:0;inline-size:0;clip-rule:nonzero;display:inline;overflow:visible;visibility:visible;isolation:auto;mix-blend-mode:normal;color-interpolation:sRGB;color-interpolation-filters:linearRGB;solid-color:#000000;solid-opacity:1;vector-effect:none;fill:#ffffff;fill-opacity:1;fill-rule:nonzero;stroke:none;stroke-width:1.165;stroke-linecap:butt;stroke-linejoin:miter;stroke-miterlimit:4;stroke-dasharray:none;stroke-dashoffset:0;stroke-opacity:1;paint-order:markers stroke fill;color-rendering:auto;image-rendering:auto;shape-rendering:auto;text-rendering:auto;enable-background:accumulate;stop-color:#000000;stop-opacity:1"
           d="m 179.40039,72.453125 -1.80664,1.941406 2.96094,3.445313 c -0.0344,0.140762 -0.0533,0.2153 -0.10742,0.46289 -0.0891,0.407543 -0.19031,0.792595 -0.17969,1.181641 0.009,0.337947 0.0983,0.720486 0.18164,1.099609 0.045,0.20481 0.0584,0.24993 0.0898,0.38086 l -3.40625,3.414062 0.33594,0.408203 1.61133,1.955079 6.63086,-2.541016 2.76367,2.820312 3.99414,-3.238281 0.0625,-0.582031 c 0.3886,-0.06585 2.35856,-0.376748 4.72656,-1.261719 1.29557,-0.48418 2.60114,-1.1047 3.61719,-1.923828 1.01605,-0.819128 1.77111,-1.895019 1.73828,-3.195313 -0.0375,-1.484347 -0.93568,-2.521662 -2.09961,-3.044921 -1.16393,-0.523259 -2.58981,-0.650892 -3.99023,-0.626953 -2.70199,0.04619 -5.15875,0.676477 -5.3418,0.722656 l -3.0332,-0.884766 -1.88672,1.800781 -0.0742,0.002 -1.0918,-1.513671 z m 0.4375,1.240234 4.60352,0.664063 1.16992,1.623047 1.13867,-0.04883 1.7168,-1.638672 2.65234,0.773437 0.1543,-0.03906 c 0,0 2.65198,-0.6701 5.26953,-0.714844 1.30877,-0.02237 2.60001,0.124301 3.49219,0.525391 0.89217,0.401089 1.38697,0.938514 1.41406,2.011718 0.0212,0.838303 -0.45079,1.569788 -1.30664,2.259766 -0.85585,0.689978 -2.06568,1.279618 -3.29297,1.738281 -2.45458,0.917326 -4.94727,1.322266 -4.94727,1.322266 l -0.43945,0.07031 -0.10156,0.941407 -2.79688,2.265625 -2.55664,-2.607422 -6.5625,2.513672 -0.74219,-0.900391 3.1211,-3.126953 -0.0801,-0.320313 c 0,0 -0.077,-0.311558 -0.15625,-0.671875 -0.0792,-0.360316 -0.15457,-0.8195 -0.15625,-0.880859 -2.8e-4,-0.01026 0.0681,-0.517232 0.15234,-0.902344 0.0842,-0.385112 0.17188,-0.722656 0.17188,-0.722656 l 0.0742,-0.292969 -2.67383,-3.109375 z"
           id="path1308-3-0-7" />
        <path
           style="color:#000000;font-style:normal;font-variant:normal;font-weight:normal;font-stretch:normal;font-size:medium;line-height:normal;font-family:sans-serif;font-variant-ligatures:normal;font-variant-position:normal;font-variant-caps:normal;font-variant-numeric:normal;font-variant-alternates:normal;font-variant-east-asian:normal;font-feature-settings:normal;font-variation-settings:normal;text-indent:0;text-align:start;text-decoration:none;text-decoration-line:none;text-decoration-style:solid;text-decoration-color:#000000;letter-spacing:normal;word-spacing:normal;text-transform:none;writing-mode:lr-tb;direction:ltr;text-orientation:mixed;dominant-baseline:auto;baseline-shift:baseline;text-anchor:start;white-space:normal;shape-padding:0;shape-margin:0;inline-size:0;clip-rule:nonzero;display:inline;overflow:visible;visibility:visible;isolation:auto;mix-blend-mode:normal;color-interpolation:sRGB;color-interpolation-filters:linearRGB;solid-color:#000000;solid-opacity:1;vector-effect:none;fill:#ffffff;fill-opacity:1;fill-rule:nonzero;stroke:none;stroke-width:1.165;stroke-linecap:butt;stroke-linejoin:miter;stroke-miterlimit:4;stroke-dasharray:none;stroke-dashoffset:0;stroke-opacity:1;paint-order:markers stroke fill;color-rendering:auto;image-rendering:auto;shape-rendering:auto;text-rendering:auto;enable-background:accumulate;stop-color:#000000;stop-opacity:1"
           d="m 177.91798,84.416146 1.34537,1.63187 6.59564,-2.528064 2.66061,2.714494 3.395,-2.751887 0.0797,-0.73748 c 0,0 10.14544,-1.632776 10.03746,-5.909968 -0.12913,-5.115102 -10.90135,-2.372308 -10.90135,-2.372308 l -2.82287,-0.823865 -1.80105,1.720468 -0.60712,0.02593 -1.13073,-1.568911 -5.15043,-0.743278 -1.24354,1.336998 2.81573,3.27422 c 0,0 -0.3521,1.385656 -0.3412,1.78496 0.0109,0.399306 0.33054,1.678532 0.33054,1.678532 z"
           id="path1310-7-8-4" />
      </g>
      <path
         id="path1229-1-6-1-2"
         d="m 156.72158,181.51456 10.30573,4.73212 25.9244,-27.61129 19.18274,6.88392 9.95484,-21.2132 -1.33846,-3.74538 c 0,0 45.14791,-31.58463 34.63317,-51.974465 -12.57456,-24.384258 -58.15381,14.021855 -58.15381,14.021855 l -15.54839,2.61955 -4.67219,12.51126 -2.86944,1.54367 -9.12275,-4.92978 -26.59312,8.44677 -2.87757,9.358 21.23915,9.22278 c 0,0 1.53831,7.50999 2.52387,9.4116 0.98558,1.90162 5.51709,7.32846 5.51709,7.32846 z"
         style="fill:#000000;stroke:none;stroke-width:6.24666;stroke-linecap:butt;stroke-linejoin:miter;stroke-miterlimit:4;stroke-dasharray:none;stroke-opacity:1;paint-order:markers stroke fill"
         sodipodi:nodetypes="ccccccsccccccccscc" />
      <path
         sodipodi:nodetypes="ccccccsccccccsc"
         id="path1235-1-1-2-5"
         d="m 167.49945,156.7264 -5.21327,18.92896 14.04163,-15.87601 1.99372,-6.56706 1.25913,4.89531 3.45934,3.63957 c 0,0 82.31744,-50.31934 68.67568,-73.079867 -7.12449,-11.886745 -32.00689,3.082735 -40.05988,8.376802 -18.79876,12.434655 -35.64611,27.054535 -35.64611,27.054535 l -12.31066,-5.97792 -22.84615,7.42085 -2.26886,4.67128 22.09499,11.49088 c 0,0 -0.78908,1.81267 1.63783,7.21709 1.20448,2.6823 5.18261,7.80558 5.18261,7.80558 z"
         style="fill:#ffffff;stroke:none;stroke-width:1.41868px;stroke-linecap:butt;stroke-linejoin:miter;stroke-opacity:1" />
      <path
         sodipodi:nodetypes="ccscscscc"
         id="path1231-3-5-2-2"
         d="m 165.76614,146.13494 6.42566,8.27835 c 0,0 2.53157,-9.54392 7.36399,-6.88521 4.83241,2.65871 4.52713,7.00748 4.52713,7.00748 0,0 71.5526,-41.3895 64.74604,-61.877541 -6.80659,-20.488054 -68.45733,32.661701 -68.45733,32.661701 0,0 4.17982,1.93746 4.63799,4.66164 0.45817,2.72418 -19.24348,16.15357 -19.24348,16.15357 z"
         style="fill:#000000;stroke:none;stroke-width:1.41868px;stroke-linecap:butt;stroke-linejoin:miter;stroke-opacity:1" />
      <path
         id="path1233-5-0-6-4"
         d="m 178.13405,129.94976 -14.13115,-5.13453 -1.32057,-3.83389 -1.50003,4.15737 -25.63567,7.01892 21.23915,9.22278 6.05306,0.73016 z"
         style="fill:#000000;stroke:none;stroke-width:1.41868px;stroke-linecap:butt;stroke-linejoin:miter;stroke-opacity:1" />
      <g
         style="font-style:normal;font-weight:normal;font-size:24.7418px;line-height:1.25;font-family:sans-serif;text-align:center;letter-spacing:0px;word-spacing:0px;text-anchor:middle;fill:#000000;fill-opacity:1;stroke:none;stroke-width:0.618545"
         id="text4659"
         aria-label="3">
        <path
           id="path4661"
           style="font-style:normal;font-variant:normal;font-weight:bold;font-stretch:normal;font-family:'Fira Mono';-inkscape-font-specification:'Fira Mono Bold';stroke-width:0.618545"
           d="m 167.71515,19.649253 q 1.78141,0 3.09272,0.593803 1.33606,0.593803 2.02883,1.608217 0.71751,0.989672 0.71751,2.202021 0,1.583475 -0.94019,2.597889 -0.91544,1.014413 -2.57314,1.509249 4.05765,0.54432 4.05765,4.25559 0,1.459766 -0.81648,2.672114 -0.79174,1.187607 -2.30099,1.880377 -1.50925,0.692771 -3.51333,0.692771 -1.88038,0 -3.41437,-0.668029 -1.53399,-0.668029 -2.62263,-1.905119 l 2.20202,-2.053569 q 1.41028,1.632959 3.56282,1.632959 1.31131,0 2.10305,-0.668029 0.79174,-0.668028 0.79174,-1.855635 0,-2.573147 -2.89479,-2.573147 h -1.55873 l 0.44535,-2.672114 h 1.08864 q 1.1876,0 1.88037,-0.569062 0.71752,-0.593803 0.71752,-1.682442 0,-0.964931 -0.69277,-1.50925 -0.69277,-0.569062 -1.80616,-0.569062 -1.85563,0 -3.41436,1.484509 l -2.00409,-2.078312 q 2.39995,-2.325729 5.86381,-2.325729 z" />
      </g>
    </g>
  </g>
</svg>
